<svg xmlns="http://www.w3.org/2000/svg" width="1200" height="800" viewBox="0 0 1200 800"><rect width="1200" height="800" fill="#172129"/><path d="M690 0H1200V800H370Z" fill="#1D2B35"/><g opacity=".11"><g transform="translate(650 40) scale(0.6)">
      <path d="M8 56L26 8H36L56 56H44L31 22L20 56Z" fill="#F5F7F8"/>
      <path d="M20 40H32V30H41" fill="none" stroke="#55B5D9" stroke-width="6" stroke-linecap="square" stroke-linejoin="round"/>
      <path d="M39 24L50 30L39 36Z" fill="#55B5D9"/>
    </g><g transform="translate(770 40) scale(0.6)">
      <path d="M8 56L26 8H36L56 56H44L31 22L20 56Z" fill="#F5F7F8"/>
      <path d="M20 40H32V30H41" fill="none" stroke="#55B5D9" stroke-width="6" stroke-linecap="square" stroke-linejoin="round"/>
      <path d="M39 24L50 30L39 36Z" fill="#55B5D9"/>
    </g><g transform="translate(890 40) scale(0.6)">
      <path d="M8 56L26 8H36L56 56H44L31 22L20 56Z" fill="#F5F7F8"/>
      <path d="M20 40H32V30H41" fill="none" stroke="#55B5D9" stroke-width="6" stroke-linecap="square" stroke-linejoin="round"/>
      <path d="M39 24L50 30L39 36Z" fill="#55B5D9"/>
    </g><g transform="translate(1010 40) scale(0.6)">
      <path d="M8 56L26 8H36L56 56H44L31 22L20 56Z" fill="#F5F7F8"/>
      <path d="M20 40H32V30H41" fill="none" stroke="#55B5D9" stroke-width="6" stroke-linecap="square" stroke-linejoin="round"/>
      <path d="M39 24L50 30L39 36Z" fill="#55B5D9"/>
    </g><g transform="translate(1130 40) scale(0.6)">
      <path d="M8 56L26 8H36L56 56H44L31 22L20 56Z" fill="#F5F7F8"/>
      <path d="M20 40H32V30H41" fill="none" stroke="#55B5D9" stroke-width="6" stroke-linecap="square" stroke-linejoin="round"/>
      <path d="M39 24L50 30L39 36Z" fill="#55B5D9"/>
    </g><g transform="translate(650 160) scale(0.6)">
      <path d="M8 56L26 8H36L56 56H44L31 22L20 56Z" fill="#F5F7F8"/>
      <path d="M20 40H32V30H41" fill="none" stroke="#55B5D9" stroke-width="6" stroke-linecap="square" stroke-linejoin="round"/>
      <path d="M39 24L50 30L39 36Z" fill="#55B5D9"/>
    </g><g transform="translate(770 160) scale(0.6)">
      <path d="M8 56L26 8H36L56 56H44L31 22L20 56Z" fill="#F5F7F8"/>
      <path d="M20 40H32V30H41" fill="none" stroke="#55B5D9" stroke-width="6" stroke-linecap="square" stroke-linejoin="round"/>
      <path d="M39 24L50 30L39 36Z" fill="#55B5D9"/>
    </g><g transform="translate(890 160) scale(0.6)">
      <path d="M8 56L26 8H36L56 56H44L31 22L20 56Z" fill="#F5F7F8"/>
      <path d="M20 40H32V30H41" fill="none" stroke="#55B5D9" stroke-width="6" stroke-linecap="square" stroke-linejoin="round"/>
      <path d="M39 24L50 30L39 36Z" fill="#55B5D9"/>
    </g><g transform="translate(1010 160) scale(0.6)">
      <path d="M8 56L26 8H36L56 56H44L31 22L20 56Z" fill="#F5F7F8"/>
      <path d="M20 40H32V30H41" fill="none" stroke="#55B5D9" stroke-width="6" stroke-linecap="square" stroke-linejoin="round"/>
      <path d="M39 24L50 30L39 36Z" fill="#55B5D9"/>
    </g><g transform="translate(1130 160) scale(0.6)">
      <path d="M8 56L26 8H36L56 56H44L31 22L20 56Z" fill="#F5F7F8"/>
      <path d="M20 40H32V30H41" fill="none" stroke="#55B5D9" stroke-width="6" stroke-linecap="square" stroke-linejoin="round"/>
      <path d="M39 24L50 30L39 36Z" fill="#55B5D9"/>
    </g><g transform="translate(650 280) scale(0.6)">
      <path d="M8 56L26 8H36L56 56H44L31 22L20 56Z" fill="#F5F7F8"/>
      <path d="M20 40H32V30H41" fill="none" stroke="#55B5D9" stroke-width="6" stroke-linecap="square" stroke-linejoin="round"/>
      <path d="M39 24L50 30L39 36Z" fill="#55B5D9"/>
    </g><g transform="translate(770 280) scale(0.6)">
      <path d="M8 56L26 8H36L56 56H44L31 22L20 56Z" fill="#F5F7F8"/>
      <path d="M20 40H32V30H41" fill="none" stroke="#55B5D9" stroke-width="6" stroke-linecap="square" stroke-linejoin="round"/>
      <path d="M39 24L50 30L39 36Z" fill="#55B5D9"/>
    </g><g transform="translate(890 280) scale(0.6)">
      <path d="M8 56L26 8H36L56 56H44L31 22L20 56Z" fill="#F5F7F8"/>
      <path d="M20 40H32V30H41" fill="none" stroke="#55B5D9" stroke-width="6" stroke-linecap="square" stroke-linejoin="round"/>
      <path d="M39 24L50 30L39 36Z" fill="#55B5D9"/>
    </g><g transform="translate(1010 280) scale(0.6)">
      <path d="M8 56L26 8H36L56 56H44L31 22L20 56Z" fill="#F5F7F8"/>
      <path d="M20 40H32V30H41" fill="none" stroke="#55B5D9" stroke-width="6" stroke-linecap="square" stroke-linejoin="round"/>
      <path d="M39 24L50 30L39 36Z" fill="#55B5D9"/>
    </g><g transform="translate(1130 280) scale(0.6)">
      <path d="M8 56L26 8H36L56 56H44L31 22L20 56Z" fill="#F5F7F8"/>
      <path d="M20 40H32V30H41" fill="none" stroke="#55B5D9" stroke-width="6" stroke-linecap="square" stroke-linejoin="round"/>
      <path d="M39 24L50 30L39 36Z" fill="#55B5D9"/>
    </g><g transform="translate(650 400) scale(0.6)">
      <path d="M8 56L26 8H36L56 56H44L31 22L20 56Z" fill="#F5F7F8"/>
      <path d="M20 40H32V30H41" fill="none" stroke="#55B5D9" stroke-width="6" stroke-linecap="square" stroke-linejoin="round"/>
      <path d="M39 24L50 30L39 36Z" fill="#55B5D9"/>
    </g><g transform="translate(770 400) scale(0.6)">
      <path d="M8 56L26 8H36L56 56H44L31 22L20 56Z" fill="#F5F7F8"/>
      <path d="M20 40H32V30H41" fill="none" stroke="#55B5D9" stroke-width="6" stroke-linecap="square" stroke-linejoin="round"/>
      <path d="M39 24L50 30L39 36Z" fill="#55B5D9"/>
    </g><g transform="translate(890 400) scale(0.6)">
      <path d="M8 56L26 8H36L56 56H44L31 22L20 56Z" fill="#F5F7F8"/>
      <path d="M20 40H32V30H41" fill="none" stroke="#55B5D9" stroke-width="6" stroke-linecap="square" stroke-linejoin="round"/>
      <path d="M39 24L50 30L39 36Z" fill="#55B5D9"/>
    </g><g transform="translate(1010 400) scale(0.6)">
      <path d="M8 56L26 8H36L56 56H44L31 22L20 56Z" fill="#F5F7F8"/>
      <path d="M20 40H32V30H41" fill="none" stroke="#55B5D9" stroke-width="6" stroke-linecap="square" stroke-linejoin="round"/>
      <path d="M39 24L50 30L39 36Z" fill="#55B5D9"/>
    </g><g transform="translate(1130 400) scale(0.6)">
      <path d="M8 56L26 8H36L56 56H44L31 22L20 56Z" fill="#F5F7F8"/>
      <path d="M20 40H32V30H41" fill="none" stroke="#55B5D9" stroke-width="6" stroke-linecap="square" stroke-linejoin="round"/>
      <path d="M39 24L50 30L39 36Z" fill="#55B5D9"/>
    </g><g transform="translate(650 520) scale(0.6)">
      <path d="M8 56L26 8H36L56 56H44L31 22L20 56Z" fill="#F5F7F8"/>
      <path d="M20 40H32V30H41" fill="none" stroke="#55B5D9" stroke-width="6" stroke-linecap="square" stroke-linejoin="round"/>
      <path d="M39 24L50 30L39 36Z" fill="#55B5D9"/>
    </g><g transform="translate(770 520) scale(0.6)">
      <path d="M8 56L26 8H36L56 56H44L31 22L20 56Z" fill="#F5F7F8"/>
      <path d="M20 40H32V30H41" fill="none" stroke="#55B5D9" stroke-width="6" stroke-linecap="square" stroke-linejoin="round"/>
      <path d="M39 24L50 30L39 36Z" fill="#55B5D9"/>
    </g><g transform="translate(890 520) scale(0.6)">
      <path d="M8 56L26 8H36L56 56H44L31 22L20 56Z" fill="#F5F7F8"/>
      <path d="M20 40H32V30H41" fill="none" stroke="#55B5D9" stroke-width="6" stroke-linecap="square" stroke-linejoin="round"/>
      <path d="M39 24L50 30L39 36Z" fill="#55B5D9"/>
    </g><g transform="translate(1010 520) scale(0.6)">
      <path d="M8 56L26 8H36L56 56H44L31 22L20 56Z" fill="#F5F7F8"/>
      <path d="M20 40H32V30H41" fill="none" stroke="#55B5D9" stroke-width="6" stroke-linecap="square" stroke-linejoin="round"/>
      <path d="M39 24L50 30L39 36Z" fill="#55B5D9"/>
    </g><g transform="translate(1130 520) scale(0.6)">
      <path d="M8 56L26 8H36L56 56H44L31 22L20 56Z" fill="#F5F7F8"/>
      <path d="M20 40H32V30H41" fill="none" stroke="#55B5D9" stroke-width="6" stroke-linecap="square" stroke-linejoin="round"/>
      <path d="M39 24L50 30L39 36Z" fill="#55B5D9"/>
    </g><g transform="translate(650 640) scale(0.6)">
      <path d="M8 56L26 8H36L56 56H44L31 22L20 56Z" fill="#F5F7F8"/>
      <path d="M20 40H32V30H41" fill="none" stroke="#55B5D9" stroke-width="6" stroke-linecap="square" stroke-linejoin="round"/>
      <path d="M39 24L50 30L39 36Z" fill="#55B5D9"/>
    </g><g transform="translate(770 640) scale(0.6)">
      <path d="M8 56L26 8H36L56 56H44L31 22L20 56Z" fill="#F5F7F8"/>
      <path d="M20 40H32V30H41" fill="none" stroke="#55B5D9" stroke-width="6" stroke-linecap="square" stroke-linejoin="round"/>
      <path d="M39 24L50 30L39 36Z" fill="#55B5D9"/>
    </g><g transform="translate(890 640) scale(0.6)">
      <path d="M8 56L26 8H36L56 56H44L31 22L20 56Z" fill="#F5F7F8"/>
      <path d="M20 40H32V30H41" fill="none" stroke="#55B5D9" stroke-width="6" stroke-linecap="square" stroke-linejoin="round"/>
      <path d="M39 24L50 30L39 36Z" fill="#55B5D9"/>
    </g><g transform="translate(1010 640) scale(0.6)">
      <path d="M8 56L26 8H36L56 56H44L31 22L20 56Z" fill="#F5F7F8"/>
      <path d="M20 40H32V30H41" fill="none" stroke="#55B5D9" stroke-width="6" stroke-linecap="square" stroke-linejoin="round"/>
      <path d="M39 24L50 30L39 36Z" fill="#55B5D9"/>
    </g><g transform="translate(1130 640) scale(0.6)">
      <path d="M8 56L26 8H36L56 56H44L31 22L20 56Z" fill="#F5F7F8"/>
      <path d="M20 40H32V30H41" fill="none" stroke="#55B5D9" stroke-width="6" stroke-linecap="square" stroke-linejoin="round"/>
      <path d="M39 24L50 30L39 36Z" fill="#55B5D9"/>
    </g></g><g transform="translate(100 170) scale(4.2)">
      <path d="M8 56L26 8H36L56 56H44L31 22L20 56Z" fill="#F5F7F8"/>
      <path d="M20 40H32V30H41" fill="none" stroke="#55B5D9" stroke-width="6" stroke-linecap="square" stroke-linejoin="round"/>
      <path d="M39 24L50 30L39 36Z" fill="#55B5D9"/>
    </g><text x="105" y="510" fill="#F5F7F8" font-family="Inter, 'Atkinson Hyperlegible Next', Arial, sans-serif" font-size="42.5" letter-spacing="-1.0"><tspan font-weight="700">Algorithm</tspan><tspan font-weight="400"> Studio</tspan></text><text x="108" y="570" fill="#55B5D9" font-family="Inter, Arial" font-size="22">Write it. Run it. Understand it.</text></svg>