<svg xmlns="http://www.w3.org/2000/svg" width="480" height="240" viewBox="0 0 480 240"><rect width="480" height="240" fill="#F5F7F8"/><g opacity=".10"><g transform="translate(-5 10) scale(0.42)">
      <path d="M8 56L26 8H36L56 56H44L31 22L20 56Z" fill="#247BA0"/>
      <path d="M20 40H32V30H41" fill="none" stroke="#55B5D9" stroke-width="6" stroke-linecap="square" stroke-linejoin="round"/>
      <path d="M39 24L50 30L39 36Z" fill="#55B5D9"/>
    </g><g transform="translate(75 10) scale(0.42)">
      <path d="M8 56L26 8H36L56 56H44L31 22L20 56Z" fill="#247BA0"/>
      <path d="M20 40H32V30H41" fill="none" stroke="#55B5D9" stroke-width="6" stroke-linecap="square" stroke-linejoin="round"/>
      <path d="M39 24L50 30L39 36Z" fill="#55B5D9"/>
    </g><g transform="translate(155 10) scale(0.42)">
      <path d="M8 56L26 8H36L56 56H44L31 22L20 56Z" fill="#247BA0"/>
      <path d="M20 40H32V30H41" fill="none" stroke="#55B5D9" stroke-width="6" stroke-linecap="square" stroke-linejoin="round"/>
      <path d="M39 24L50 30L39 36Z" fill="#55B5D9"/>
    </g><g transform="translate(235 10) scale(0.42)">
      <path d="M8 56L26 8H36L56 56H44L31 22L20 56Z" fill="#247BA0"/>
      <path d="M20 40H32V30H41" fill="none" stroke="#55B5D9" stroke-width="6" stroke-linecap="square" stroke-linejoin="round"/>
      <path d="M39 24L50 30L39 36Z" fill="#55B5D9"/>
    </g><g transform="translate(315 10) scale(0.42)">
      <path d="M8 56L26 8H36L56 56H44L31 22L20 56Z" fill="#247BA0"/>
      <path d="M20 40H32V30H41" fill="none" stroke="#55B5D9" stroke-width="6" stroke-linecap="square" stroke-linejoin="round"/>
      <path d="M39 24L50 30L39 36Z" fill="#55B5D9"/>
    </g><g transform="translate(395 10) scale(0.42)">
      <path d="M8 56L26 8H36L56 56H44L31 22L20 56Z" fill="#247BA0"/>
      <path d="M20 40H32V30H41" fill="none" stroke="#55B5D9" stroke-width="6" stroke-linecap="square" stroke-linejoin="round"/>
      <path d="M39 24L50 30L39 36Z" fill="#55B5D9"/>
    </g><g transform="translate(-5 90) scale(0.42)">
      <path d="M8 56L26 8H36L56 56H44L31 22L20 56Z" fill="#247BA0"/>
      <path d="M20 40H32V30H41" fill="none" stroke="#55B5D9" stroke-width="6" stroke-linecap="square" stroke-linejoin="round"/>
      <path d="M39 24L50 30L39 36Z" fill="#55B5D9"/>
    </g><g transform="translate(75 90) scale(0.42)">
      <path d="M8 56L26 8H36L56 56H44L31 22L20 56Z" fill="#247BA0"/>
      <path d="M20 40H32V30H41" fill="none" stroke="#55B5D9" stroke-width="6" stroke-linecap="square" stroke-linejoin="round"/>
      <path d="M39 24L50 30L39 36Z" fill="#55B5D9"/>
    </g><g transform="translate(155 90) scale(0.42)">
      <path d="M8 56L26 8H36L56 56H44L31 22L20 56Z" fill="#247BA0"/>
      <path d="M20 40H32V30H41" fill="none" stroke="#55B5D9" stroke-width="6" stroke-linecap="square" stroke-linejoin="round"/>
      <path d="M39 24L50 30L39 36Z" fill="#55B5D9"/>
    </g><g transform="translate(235 90) scale(0.42)">
      <path d="M8 56L26 8H36L56 56H44L31 22L20 56Z" fill="#247BA0"/>
      <path d="M20 40H32V30H41" fill="none" stroke="#55B5D9" stroke-width="6" stroke-linecap="square" stroke-linejoin="round"/>
      <path d="M39 24L50 30L39 36Z" fill="#55B5D9"/>
    </g><g transform="translate(315 90) scale(0.42)">
      <path d="M8 56L26 8H36L56 56H44L31 22L20 56Z" fill="#247BA0"/>
      <path d="M20 40H32V30H41" fill="none" stroke="#55B5D9" stroke-width="6" stroke-linecap="square" stroke-linejoin="round"/>
      <path d="M39 24L50 30L39 36Z" fill="#55B5D9"/>
    </g><g transform="translate(395 90) scale(0.42)">
      <path d="M8 56L26 8H36L56 56H44L31 22L20 56Z" fill="#247BA0"/>
      <path d="M20 40H32V30H41" fill="none" stroke="#55B5D9" stroke-width="6" stroke-linecap="square" stroke-linejoin="round"/>
      <path d="M39 24L50 30L39 36Z" fill="#55B5D9"/>
    </g><g transform="translate(-5 170) scale(0.42)">
      <path d="M8 56L26 8H36L56 56H44L31 22L20 56Z" fill="#247BA0"/>
      <path d="M20 40H32V30H41" fill="none" stroke="#55B5D9" stroke-width="6" stroke-linecap="square" stroke-linejoin="round"/>
      <path d="M39 24L50 30L39 36Z" fill="#55B5D9"/>
    </g><g transform="translate(75 170) scale(0.42)">
      <path d="M8 56L26 8H36L56 56H44L31 22L20 56Z" fill="#247BA0"/>
      <path d="M20 40H32V30H41" fill="none" stroke="#55B5D9" stroke-width="6" stroke-linecap="square" stroke-linejoin="round"/>
      <path d="M39 24L50 30L39 36Z" fill="#55B5D9"/>
    </g><g transform="translate(155 170) scale(0.42)">
      <path d="M8 56L26 8H36L56 56H44L31 22L20 56Z" fill="#247BA0"/>
      <path d="M20 40H32V30H41" fill="none" stroke="#55B5D9" stroke-width="6" stroke-linecap="square" stroke-linejoin="round"/>
      <path d="M39 24L50 30L39 36Z" fill="#55B5D9"/>
    </g><g transform="translate(235 170) scale(0.42)">
      <path d="M8 56L26 8H36L56 56H44L31 22L20 56Z" fill="#247BA0"/>
      <path d="M20 40H32V30H41" fill="none" stroke="#55B5D9" stroke-width="6" stroke-linecap="square" stroke-linejoin="round"/>
      <path d="M39 24L50 30L39 36Z" fill="#55B5D9"/>
    </g><g transform="translate(315 170) scale(0.42)">
      <path d="M8 56L26 8H36L56 56H44L31 22L20 56Z" fill="#247BA0"/>
      <path d="M20 40H32V30H41" fill="none" stroke="#55B5D9" stroke-width="6" stroke-linecap="square" stroke-linejoin="round"/>
      <path d="M39 24L50 30L39 36Z" fill="#55B5D9"/>
    </g><g transform="translate(395 170) scale(0.42)">
      <path d="M8 56L26 8H36L56 56H44L31 22L20 56Z" fill="#247BA0"/>
      <path d="M20 40H32V30H41" fill="none" stroke="#55B5D9" stroke-width="6" stroke-linecap="square" stroke-linejoin="round"/>
      <path d="M39 24L50 30L39 36Z" fill="#55B5D9"/>
    </g></g></svg>